<svg width="56" height="56" viewBox="0 0 56 56" fill="none" xmlns="http://www.w3.org/2000/svg">
<g id="Duotone/Stack">
<g id="Group 39790">
<path id="Vector" d="M25.7141 20.8576C38.9686 20.8576 49.7135 16.4925 49.7135 11.1077C49.7135 5.72298 38.9686 1.35779 25.7141 1.35779C12.4595 1.35779 1.71463 5.72298 1.71463 11.1077C1.71463 16.4925 12.4595 20.8576 25.7141 20.8576Z" stroke="#7534FF" stroke-width="2.3"/>
<path id="Vector_2" d="M1.71524 30.6078C1.71524 30.6078 1.71524 38.223 1.71524 43.6077C1.71524 48.9925 12.4602 53.3577 25.7143 53.3577C38.9687 53.3577 49.7146 48.9925 49.7146 43.6077C49.7146 40.92 49.7146 30.6078 49.7146 30.6078" stroke="#7534FF" stroke-width="2.3" stroke-linecap="square"/>
<path id="Vector_3" d="M1.71524 11.1078C1.71524 11.1078 1.71524 21.973 1.71524 27.3576C1.71524 32.7424 12.4602 37.1077 25.7143 37.1077C38.9687 37.1077 49.7146 32.7424 49.7146 27.3576C49.7146 24.6699 49.7146 11.1078 49.7146 11.1078" stroke="#7534FF" stroke-width="2.3"/>
</g>
</g>
</svg>
